<?xml version="1.0" encoding="utf-8"?> <svg version="1.1" id="Calque_1" xmlns="http://www.w3.org/2000/svg" xmlns:xlink="http://www.w3.org/1999/xlink" x="0px" y="0px" viewBox="0 0 22 22" style="enable-background:new 0 0 22 22;" xml:space="preserve"><path d="M10.978,0C4.93,0,0.157,4.681,0.157,11c0,6.319,4.773,11,10.821,11c6.049,0,10.865-4.681,10.865-11
	C21.843,4.681,17.066,0,10.978,0z M10.978,20.136c-4.956,0-8.683-3.819-8.683-9.136s3.728-9.136,8.683-9.136
	c4.956,0,8.727,3.819,8.727,9.136S15.977,20.136,10.978,20.136z"/><path d="M10.987,14.994c-2.09,0-3.61-1.62-3.61-3.854H5.2c0,3.44,2.487,6.031,5.787,6.031c3.301,0,5.809-2.591,5.809-6.031h-2.177
	C14.619,13.408,13.125,14.994,10.987,14.994z"/><path d="M7.224,9.616c0.842,0,1.524-0.682,1.524-1.524c0-0.842-0.682-1.524-1.524-1.524C6.382,6.567,5.7,7.25,5.7,8.092
	C5.7,8.933,6.382,9.616,7.224,9.616z"/><path d="M14.628,9.616c0.842,0,1.524-0.682,1.524-1.524c0-0.842-0.682-1.524-1.524-1.524c-0.842,0-1.524,0.682-1.524,1.524
	C13.104,8.933,13.786,9.616,14.628,9.616z"/></svg>